<svg width="21" height="21" viewBox="0 0 21 21" fill="none" xmlns="http://www.w3.org/2000/svg">
<path fill-rule="evenodd" clip-rule="evenodd" d="M5.71216 9.1178C5.47169 7.91546 6.83435 7.2742 7.71607 6.71311C8.19701 6.39248 8.27717 5.91154 8.11686 5.43061C7.63592 4.06795 6.7542 2.8656 6.1931 1.50294C6.11294 1.26247 5.87248 1.10216 5.63201 1.022C3.30747 0.781532 1.62418 2.54497 1.14325 4.7092C-0.29957 11.1217 9.47952 20.9008 15.9722 19.5381C18.1364 19.0572 19.8999 17.3739 19.6594 15.0494C19.5792 14.8089 19.4189 14.5684 19.1784 14.4883C17.8158 13.9272 16.6134 13.0455 15.2508 12.5645C14.7698 12.4042 14.2889 12.4844 13.9683 12.9653C13.4072 13.847 12.7659 15.2097 11.5636 14.9692C9.47952 14.5684 6.03279 11.1217 5.71216 9.1178Z" stroke="#202445"/>
</svg>
