<svg width="18" height="24" viewBox="0 0 18 24" fill="none" xmlns="http://www.w3.org/2000/svg">
<path d="M15.0449 2.7444C11.6096 -0.690842 6.01795 -0.690842 2.58271 2.7444C1.15344 4.17366 0.250752 6.06932 0.0451384 8.08533C-0.160475 10.0963 0.341021 12.1374 1.45434 13.8275C1.45936 13.8375 1.46437 13.8425 1.46939 13.8525L8.32483 23.2556C8.44017 23.411 8.62071 23.5013 8.81128 23.5013C9.00185 23.5013 9.18239 23.411 9.29773 23.2556L16.1532 13.8525C16.1582 13.8425 16.1632 13.8375 16.1682 13.8275C17.2815 12.1374 17.783 10.1013 17.5774 8.08533C17.3768 6.07433 16.4741 4.17366 15.0449 2.7444ZM15.1753 13.1554L8.81128 21.8765L2.4473 13.1554C1.48945 11.7011 1.06317 9.94086 1.2387 8.2107C1.41422 6.47051 2.19154 4.83564 3.43023 3.60196C6.39909 0.633106 11.2235 0.633106 14.1923 3.60196C15.426 4.83564 16.2033 6.47553 16.3839 8.2107C16.5594 9.94086 16.1281 11.6961 15.1753 13.1554Z" fill="#202445"/>
<path d="M8.81228 4.69629C6.79126 4.69629 5.15137 6.34119 5.15137 8.35721C5.15137 10.3732 6.79627 12.0181 8.81228 12.0181C10.8283 12.0181 12.4732 10.3732 12.4732 8.35721C12.4732 6.34119 10.8333 4.69629 8.81228 4.69629ZM8.81228 10.8145C7.45825 10.8145 6.35496 9.71124 6.35496 8.35721C6.35496 7.00317 7.45825 5.89988 8.81228 5.89988C10.1663 5.89988 11.2696 7.00317 11.2696 8.35721C11.2696 9.71124 10.1663 10.8145 8.81228 10.8145Z" fill="#202445"/>
</svg>
