<svg width="65" height="104" viewBox="0 0 65 104" fill="none" xmlns="http://www.w3.org/2000/svg">
<rect width="65" height="65" fill="#3C5598"/>
<rect y="65" width="65" height="39" fill="#202445"/>
<path d="M18.0082 24.864H24.6802V42H20.5762V30.408H19.9042L17.9602 36.576H13.5922L11.6482 30.408H10.9762V42H6.87222V24.864H13.5442L15.4402 31.08H16.1122L18.0082 24.864ZM37.6038 36.168H42.1878C41.9478 38.024 41.1718 39.512 39.8598 40.632C38.5638 41.752 36.8758 42.312 34.7958 42.312C32.1878 42.312 30.1398 41.512 28.6518 39.912C27.1798 38.296 26.4438 36.136 26.4438 33.432C26.4438 30.728 27.1798 28.576 28.6518 26.976C30.1398 25.36 32.1878 24.552 34.7958 24.552C36.7798 24.552 38.4038 25.072 39.6678 26.112C40.9478 27.136 41.7398 28.488 42.0438 30.168H37.4118C37.1238 29.048 36.2518 28.488 34.7958 28.488C33.5798 28.488 32.6438 28.944 31.9878 29.856C31.3318 30.752 31.0038 31.944 31.0038 33.432C31.0038 34.92 31.3318 36.12 31.9878 37.032C32.6438 37.928 33.5798 38.376 34.7958 38.376C35.5798 38.376 36.2118 38.184 36.6918 37.8C37.1878 37.416 37.4918 36.872 37.6038 36.168ZM43.9644 42V24.864H48.4284V31.176H51.8844L54.8364 24.864H59.3244L55.4844 33.192L59.5404 42H55.0524L51.9084 35.184H48.4284V42H43.9644Z" fill="white"/>
</svg>
