<svg width="18" height="18" fill="none" xmlns="http://www.w3.org/2000/svg">
<path fill-rule="evenodd" clip-rule="evenodd" d="M5.039 7.95812C4.83288 6.92753 6.00087 6.37789 6.75663 5.89695C7.16887 5.62213 7.23757 5.2099 7.10016 4.79766C6.68793 3.62967 5.93217 2.59909 5.45123 1.43109C5.38252 1.22498 5.17641 1.08756 4.97029 1.01886C2.97783 0.812742 1.53502 2.32426 1.12278 4.17931C-0.113918 9.67576 8.26816 18.0578 13.8333 16.8898C15.6884 16.4776 17.1999 15.0348 16.9938 13.0423C16.9251 12.8362 16.7876 12.6301 16.5815 12.5614C15.4135 12.0804 14.3829 11.3247 13.215 10.9125C12.8027 10.775 12.3905 10.8437 12.1157 11.256C11.6347 12.0117 11.0851 13.1797 10.0545 12.9736C8.26816 12.6301 5.31382 9.67576 5.039 7.95812Z" stroke="#D9C3AE"/>
</svg>
