<svg width="24" height="27" viewBox="0 0 24 27" fill="none" xmlns="http://www.w3.org/2000/svg">
<mask id="path-1-outside-1" maskUnits="userSpaceOnUse" x="-2.90851" y="-3.38145" width="29.655" height="33.8919" fill="black">
<rect fill="white" x="-2.90851" y="-3.38145" width="29.655" height="33.8919"/>
<path d="M22.4807 5.48601C21.481 2.62973 18.8553 0.785471 15.7925 0.787466C15.5587 0.787097 15.3251 0.80378 15.099 0.819357C14.9935 0.826886 14.8878 0.834144 14.7824 0.839919C14.7673 0.84077 14.7524 0.842981 14.7375 0.846342L13.8037 1.05663C13.7874 1.06029 13.7715 1.06559 13.7561 1.07192C13.6339 1.1245 13.511 1.1747 13.3879 1.22524C13.1076 1.34023 12.818 1.4596 12.5384 1.60066C11.4299 2.15956 10.5209 2.97649 9.83683 4.0281C6.95423 8.45585 4.07581 12.8872 1.20024 17.32C0.482674 18.4267 0.182615 19.6543 0.308531 20.9719C0.311338 20.9997 0.307791 21.0285 0.305387 21.0572L0.301194 21.1203C0.300575 21.1441 0.302457 21.1676 0.307322 21.1905L0.476678 21.9858C0.479921 22.001 0.484579 22.0162 0.490535 22.0308C0.550233 22.179 0.609407 22.3287 0.668019 22.4771L0.7083 22.5795C1.63292 24.9148 4.20238 26.3499 6.68563 25.9169C6.79308 25.8981 6.89892 25.8771 7.00336 25.8536C8.54394 25.5064 9.76723 24.6438 10.6426 23.2863C11.3081 22.2551 11.9775 21.2268 12.6466 20.1982L15.5384 15.7493C16.7371 13.9048 17.9361 12.0604 19.1326 10.2138C20.1152 8.69483 20.0693 6.82114 19.0152 5.44101C18.1958 4.36885 16.9624 3.79039 15.6311 3.85334C14.2781 3.91693 13.0667 4.62867 12.308 5.80538C10.886 8.01106 9.46972 10.2209 8.05321 12.431L5.94953 15.7117L5.92927 15.7448C5.89847 15.795 5.86757 15.8462 5.8418 15.8987C5.77548 16.0345 5.83063 16.1974 5.96506 16.2626C6.09955 16.3281 6.26228 16.2712 6.32854 16.1351C6.34651 16.098 6.3688 16.0625 6.3906 16.0274L8.50851 12.7227C9.92453 10.5129 11.3407 8.30372 12.7627 6.09804C13.424 5.07294 14.4766 4.45281 15.6509 4.39756C16.8035 4.34294 17.8725 4.84525 18.5835 5.77537C19.4965 6.97095 19.5338 8.59745 18.679 9.91924C17.4824 11.7655 16.2839 13.6096 15.0851 15.4538L12.1934 19.9029C11.5236 20.9322 10.854 21.9612 10.1881 22.993C9.32848 24.327 8.15398 25.1077 6.59823 25.3797C4.39757 25.7632 2.03196 24.443 1.21318 22.3737L1.17301 22.2719C1.11676 22.1292 1.06006 21.9858 1.00272 21.8433L0.846166 21.1082L0.847067 21.0937C0.852034 21.0316 0.854987 20.9694 0.848966 20.9117C0.735489 19.7234 1.00644 18.614 1.65448 17.6147C4.5299 13.1826 7.40805 8.75127 10.2904 4.32357C10.9205 3.35481 11.7576 2.60251 12.7781 2.08795C13.0386 1.95631 13.3184 1.84144 13.589 1.73034C13.7069 1.68211 13.8245 1.63368 13.9415 1.58367L14.8289 1.38383C14.9297 1.37795 15.0306 1.37118 15.1314 1.36388C15.3577 1.34797 15.5714 1.3329 15.7862 1.33329C18.6186 1.33161 21.0452 3.03455 21.9685 5.67232C22.6751 7.68737 22.4582 9.61911 21.3244 11.4144C19.7507 13.9105 18.1261 16.4343 16.555 18.8748C16.0005 19.7362 15.4461 20.5975 14.8925 21.4596C14.811 21.5868 14.8466 21.7552 14.9723 21.8358C15.0982 21.9166 15.2661 21.8788 15.3479 21.7518C15.9013 20.8898 16.4556 20.0287 17.01 19.1674C18.5819 16.7259 20.2071 14.2008 21.7818 11.7028C23.0103 9.75786 23.2452 7.66644 22.4807 5.48601Z"/>
</mask>
<path d="M22.4807 5.48601C21.481 2.62973 18.8553 0.785471 15.7925 0.787466C15.5587 0.787097 15.3251 0.80378 15.099 0.819357C14.9935 0.826886 14.8878 0.834144 14.7824 0.839919C14.7673 0.84077 14.7524 0.842981 14.7375 0.846342L13.8037 1.05663C13.7874 1.06029 13.7715 1.06559 13.7561 1.07192C13.6339 1.1245 13.511 1.1747 13.3879 1.22524C13.1076 1.34023 12.818 1.4596 12.5384 1.60066C11.4299 2.15956 10.5209 2.97649 9.83683 4.0281C6.95423 8.45585 4.07581 12.8872 1.20024 17.32C0.482674 18.4267 0.182615 19.6543 0.308531 20.9719C0.311338 20.9997 0.307791 21.0285 0.305387 21.0572L0.301194 21.1203C0.300575 21.1441 0.302457 21.1676 0.307322 21.1905L0.476678 21.9858C0.479921 22.001 0.484579 22.0162 0.490535 22.0308C0.550233 22.179 0.609407 22.3287 0.668019 22.4771L0.7083 22.5795C1.63292 24.9148 4.20238 26.3499 6.68563 25.9169C6.79308 25.8981 6.89892 25.8771 7.00336 25.8536C8.54394 25.5064 9.76723 24.6438 10.6426 23.2863C11.3081 22.2551 11.9775 21.2268 12.6466 20.1982L15.5384 15.7493C16.7371 13.9048 17.9361 12.0604 19.1326 10.2138C20.1152 8.69483 20.0693 6.82114 19.0152 5.44101C18.1958 4.36885 16.9624 3.79039 15.6311 3.85334C14.2781 3.91693 13.0667 4.62867 12.308 5.80538C10.886 8.01106 9.46972 10.2209 8.05321 12.431L5.94953 15.7117L5.92927 15.7448C5.89847 15.795 5.86757 15.8462 5.8418 15.8987C5.77548 16.0345 5.83063 16.1974 5.96506 16.2626C6.09955 16.3281 6.26228 16.2712 6.32854 16.1351C6.34651 16.098 6.3688 16.0625 6.3906 16.0274L8.50851 12.7227C9.92453 10.5129 11.3407 8.30372 12.7627 6.09804C13.424 5.07294 14.4766 4.45281 15.6509 4.39756C16.8035 4.34294 17.8725 4.84525 18.5835 5.77537C19.4965 6.97095 19.5338 8.59745 18.679 9.91924C17.4824 11.7655 16.2839 13.6096 15.0851 15.4538L12.1934 19.9029C11.5236 20.9322 10.854 21.9612 10.1881 22.993C9.32848 24.327 8.15398 25.1077 6.59823 25.3797C4.39757 25.7632 2.03196 24.443 1.21318 22.3737L1.17301 22.2719C1.11676 22.1292 1.06006 21.9858 1.00272 21.8433L0.846166 21.1082L0.847067 21.0937C0.852034 21.0316 0.854987 20.9694 0.848966 20.9117C0.735489 19.7234 1.00644 18.614 1.65448 17.6147C4.5299 13.1826 7.40805 8.75127 10.2904 4.32357C10.9205 3.35481 11.7576 2.60251 12.7781 2.08795C13.0386 1.95631 13.3184 1.84144 13.589 1.73034C13.7069 1.68211 13.8245 1.63368 13.9415 1.58367L14.8289 1.38383C14.9297 1.37795 15.0306 1.37118 15.1314 1.36388C15.3577 1.34797 15.5714 1.3329 15.7862 1.33329C18.6186 1.33161 21.0452 3.03455 21.9685 5.67232C22.6751 7.68737 22.4582 9.61911 21.3244 11.4144C19.7507 13.9105 18.1261 16.4343 16.555 18.8748C16.0005 19.7362 15.4461 20.5975 14.8925 21.4596C14.811 21.5868 14.8466 21.7552 14.9723 21.8358C15.0982 21.9166 15.2661 21.8788 15.3479 21.7518C15.9013 20.8898 16.4556 20.0287 17.01 19.1674C18.5819 16.7259 20.2071 14.2008 21.7818 11.7028C23.0103 9.75786 23.2452 7.66644 22.4807 5.48601Z" fill="#fff"/>
<path d="M22.4807 5.48601C21.481 2.62973 18.8553 0.785471 15.7925 0.787466C15.5587 0.787097 15.3251 0.80378 15.099 0.819357C14.9935 0.826886 14.8878 0.834144 14.7824 0.839919C14.7673 0.84077 14.7524 0.842981 14.7375 0.846342L13.8037 1.05663C13.7874 1.06029 13.7715 1.06559 13.7561 1.07192C13.6339 1.1245 13.511 1.1747 13.3879 1.22524C13.1076 1.34023 12.818 1.4596 12.5384 1.60066C11.4299 2.15956 10.5209 2.97649 9.83683 4.0281C6.95423 8.45585 4.07581 12.8872 1.20024 17.32C0.482674 18.4267 0.182615 19.6543 0.308531 20.9719C0.311338 20.9997 0.307791 21.0285 0.305387 21.0572L0.301194 21.1203C0.300575 21.1441 0.302457 21.1676 0.307322 21.1905L0.476678 21.9858C0.479921 22.001 0.484579 22.0162 0.490535 22.0308C0.550233 22.179 0.609407 22.3287 0.668019 22.4771L0.7083 22.5795C1.63292 24.9148 4.20238 26.3499 6.68563 25.9169C6.79308 25.8981 6.89892 25.8771 7.00336 25.8536C8.54394 25.5064 9.76723 24.6438 10.6426 23.2863C11.3081 22.2551 11.9775 21.2268 12.6466 20.1982L15.5384 15.7493C16.7371 13.9048 17.9361 12.0604 19.1326 10.2138C20.1152 8.69483 20.0693 6.82114 19.0152 5.44101C18.1958 4.36885 16.9624 3.79039 15.6311 3.85334C14.2781 3.91693 13.0667 4.62867 12.308 5.80538C10.886 8.01106 9.46972 10.2209 8.05321 12.431L5.94953 15.7117L5.92927 15.7448C5.89847 15.795 5.86757 15.8462 5.8418 15.8987C5.77548 16.0345 5.83063 16.1974 5.96506 16.2626C6.09955 16.3281 6.26228 16.2712 6.32854 16.1351C6.34651 16.098 6.3688 16.0625 6.3906 16.0274L8.50851 12.7227C9.92453 10.5129 11.3407 8.30372 12.7627 6.09804C13.424 5.07294 14.4766 4.45281 15.6509 4.39756C16.8035 4.34294 17.8725 4.84525 18.5835 5.77537C19.4965 6.97095 19.5338 8.59745 18.679 9.91924C17.4824 11.7655 16.2839 13.6096 15.0851 15.4538L12.1934 19.9029C11.5236 20.9322 10.854 21.9612 10.1881 22.993C9.32848 24.327 8.15398 25.1077 6.59823 25.3797C4.39757 25.7632 2.03196 24.443 1.21318 22.3737L1.17301 22.2719C1.11676 22.1292 1.06006 21.9858 1.00272 21.8433L0.846166 21.1082L0.847067 21.0937C0.852034 21.0316 0.854987 20.9694 0.848966 20.9117C0.735489 19.7234 1.00644 18.614 1.65448 17.6147C4.5299 13.1826 7.40805 8.75127 10.2904 4.32357C10.9205 3.35481 11.7576 2.60251 12.7781 2.08795C13.0386 1.95631 13.3184 1.84144 13.589 1.73034C13.7069 1.68211 13.8245 1.63368 13.9415 1.58367L14.8289 1.38383C14.9297 1.37795 15.0306 1.37118 15.1314 1.36388C15.3577 1.34797 15.5714 1.3329 15.7862 1.33329C18.6186 1.33161 21.0452 3.03455 21.9685 5.67232C22.6751 7.68737 22.4582 9.61911 21.3244 11.4144C19.7507 13.9105 18.1261 16.4343 16.555 18.8748C16.0005 19.7362 15.4461 20.5975 14.8925 21.4596C14.811 21.5868 14.8466 21.7552 14.9723 21.8358C15.0982 21.9166 15.2661 21.8788 15.3479 21.7518C15.9013 20.8898 16.4556 20.0287 17.01 19.1674C18.5819 16.7259 20.2071 14.2008 21.7818 11.7028C23.0103 9.75786 23.2452 7.66644 22.4807 5.48601Z" stroke="#fff" stroke-width="0.4" mask="url(#path-1-outside-1)"/>
</svg>
