<svg width="23" height="32" viewBox="0 0 23 32" fill="none" xmlns="http://www.w3.org/2000/svg">
<path d="M2.72809 17.5062L11.4983 31L20.2684 17.5062C21.3112 15.9008 21.906 14.0391 21.9898 12.1186C22.0735 10.1981 21.643 8.29046 20.7439 6.59804C19.8449 4.90563 18.5108 3.49161 16.8833 2.50601C15.2558 1.52041 13.3956 1 11.5 1C9.60441 1 7.74417 1.52041 6.11668 2.50601C4.48918 3.49161 3.15513 4.90563 2.25609 6.59804C1.35704 8.29046 0.926535 10.1981 1.01025 12.1186C1.09396 14.0391 1.68876 15.9008 2.73155 17.5062H2.72809ZM11.4983 6.17715C12.5472 6.17715 13.5726 6.4926 14.4448 7.08361C15.317 7.67461 15.9968 8.51463 16.3982 9.49744C16.7996 10.4802 16.9046 11.5617 16.7 12.605C16.4953 13.6484 15.9902 14.6068 15.2485 15.359C14.5068 16.1112 13.5618 16.6234 12.533 16.831C11.5042 17.0385 10.4378 16.932 9.46866 16.5249C8.49955 16.1178 7.67124 15.4284 7.08847 14.5439C6.5057 13.6594 6.19465 12.6195 6.19465 11.5557C6.19648 10.1298 6.75584 8.76283 7.75006 7.75455C8.74429 6.74628 10.0922 6.17901 11.4983 6.17715V6.17715Z" stroke="#3C5598"/>
</svg>
