<svg width="17" height="23" viewBox="0 0 17 23" fill="none" xmlns="http://www.w3.org/2000/svg">
<path d="M2.23435 12.5543L8.49876 22L14.7632 12.5543C15.508 11.4306 15.9329 10.1274 15.9927 8.78304C16.0525 7.43869 15.745 6.10332 15.1028 4.91863C14.4606 3.73394 13.5077 2.74413 12.3452 2.05421C11.1827 1.36429 9.85399 1 8.5 1C7.14601 1 5.81727 1.36429 4.65477 2.05421C3.49227 2.74413 2.53938 3.73394 1.89721 4.91863C1.25503 6.10332 0.947525 7.43869 1.00732 8.78304C1.06711 10.1274 1.49197 11.4306 2.23682 12.5543H2.23435ZM8.49876 4.62401C9.24802 4.62401 9.98045 4.84482 10.6034 5.25853C11.2264 5.67223 11.712 6.26024 11.9987 6.94821C12.2854 7.63617 12.3604 8.39319 12.2143 9.12353C12.0681 9.85387 11.7073 10.5247 11.1775 11.0513C10.6477 11.5778 9.97268 11.9364 9.23783 12.0817C8.50297 12.2269 7.74127 12.1524 7.04904 11.8674C6.35682 11.5825 5.76517 11.0999 5.34891 10.4807C4.93264 9.86158 4.71046 9.13366 4.71046 8.38901C4.71177 7.39087 5.11131 6.43398 5.82147 5.72819C6.53164 5.02239 7.49445 4.62531 8.49876 4.62401V4.62401Z" stroke="#D9C3AE"/>
</svg>
