<svg width="32" height="32" viewBox="0 0 32 32" fill="none" xmlns="http://www.w3.org/2000/svg">
<path d="M14.6741 1C7.12737 1 1 7.12733 1 14.6741C1 22.2209 7.12737 28.3482 14.6741 28.3482C18.2927 28.3482 21.5868 26.9525 24.0338 24.654L30.2367 30.8708C30.409 31.043 30.6986 31.0431 30.8708 30.8708C31.043 30.6985 31.0431 30.4228 30.8708 30.2505L24.6402 24.02C26.9333 21.574 28.3482 18.2879 28.3482 14.6741C28.3482 7.12733 22.2209 1 14.6741 1ZM14.6741 1.88219C21.7441 1.88219 27.4661 7.60412 27.4661 14.6741C27.4661 21.7441 21.7441 27.4661 14.6741 27.4661C7.60415 27.4661 1.88218 21.7441 1.88218 14.6741C1.88218 7.60412 7.60415 1.88219 14.6741 1.88219Z" fill="#D9C3AE" stroke="#D9C3AE" stroke-width="0.1"/>
<line x1="14.3569" y1="7.85693" x2="14.3569" y2="21.5712" stroke="#D9C3AE"/>
<line x1="7.85693" y1="15.0718" x2="21.5712" y2="15.0718" stroke="#D9C3AE"/>
</svg>
