<svg width="100" height="100" viewBox="0 0 100 100" fill="none" xmlns="http://www.w3.org/2000/svg">
<path d="M20.7651 46.9482C20.4418 46.9482 20.1318 47.0767 19.9032 47.3053C19.6746 47.5339 19.5461 47.8439 19.5461 48.1672V71.3281C19.5461 71.6514 19.6746 71.9614 19.9032 72.19C20.1318 72.4186 20.4418 72.5471 20.7651 72.5471C21.0884 72.5471 21.3985 72.4186 21.6271 72.19C21.8557 71.9614 21.9841 71.6514 21.9841 71.3281V48.1672C21.9841 47.8439 21.8557 47.5339 21.6271 47.3053C21.3985 47.0767 21.0884 46.9482 20.7651 46.9482Z" fill="#D9C3AE"/>
<path d="M50.021 73.1569C50.3443 73.1569 50.6543 73.0285 50.883 72.7999C51.1116 72.5713 51.24 72.2612 51.24 71.9379V48.7771C51.24 48.4538 51.1116 48.1437 50.883 47.9151C50.6543 47.6865 50.3443 47.5581 50.021 47.5581C49.6977 47.5581 49.3876 47.6865 49.159 47.9151C48.9304 48.1437 48.802 48.4538 48.802 48.7771V71.9379C48.802 72.2612 48.9304 72.5713 49.159 72.7999C49.3876 73.0285 49.6977 73.1569 50.021 73.1569Z" fill="#D9C3AE"/>
<path d="M79.2766 73.7663C79.5999 73.7663 79.91 73.6379 80.1386 73.4093C80.3672 73.1807 80.4956 72.8706 80.4956 72.5473V49.3865C80.4956 49.0632 80.3672 48.7531 80.1386 48.5245C79.91 48.2959 79.5999 48.1675 79.2766 48.1675C78.9533 48.1675 78.6433 48.2959 78.4147 48.5245C78.186 48.7531 78.0576 49.0632 78.0576 49.3865V72.5473C78.0576 72.8706 78.186 73.1807 78.4147 73.4093C78.6433 73.6379 78.9533 73.7663 79.2766 73.7663Z" fill="#D9C3AE"/>
<path d="M48.802 19.521C50.0075 19.521 51.1859 19.1635 52.1882 18.4938C53.1905 17.8241 53.9717 16.8722 54.433 15.7585C54.8943 14.6447 55.015 13.4193 54.7798 12.2369C54.5447 11.0546 53.9642 9.96862 53.1118 9.11623C52.2594 8.26383 51.1734 7.68335 49.9911 7.44817C48.8088 7.213 47.5833 7.3337 46.4695 7.79501C45.3558 8.25632 44.4039 9.03753 43.7342 10.0398C43.0645 11.0421 42.707 12.2205 42.707 13.426C42.707 14.2264 42.8647 15.019 43.171 15.7585C43.4773 16.4979 43.9262 17.1698 44.4922 17.7358C45.6352 18.8788 47.1855 19.521 48.802 19.521ZM48.802 9.76904C49.5253 9.76904 50.2323 9.98352 50.8337 10.3854C51.4351 10.7872 51.9038 11.3583 52.1806 12.0266C52.4574 12.6948 52.5298 13.4301 52.3887 14.1395C52.2476 14.8488 51.8993 15.5005 51.3879 16.0119C50.8764 16.5233 50.2248 16.8716 49.5154 17.0127C48.806 17.1538 48.0708 17.0814 47.4025 16.8046C46.7343 16.5278 46.1632 16.0591 45.7613 15.4577C45.3595 14.8563 45.145 14.1493 45.145 13.426C45.145 12.4561 45.5303 11.526 46.2161 10.8401C46.9019 10.1543 47.8321 9.76904 48.802 9.76904Z" fill="#D9C3AE"/>
<path d="M0.0423378 28.3586C0.11144 28.6268 0.269814 28.8635 0.491384 29.0296C0.712953 29.1958 0.984506 29.2816 1.26133 29.2728H4.9183V35.3678C4.9183 35.6911 5.04673 36.0011 5.27534 36.2297C5.50394 36.4584 5.814 36.5868 6.13729 36.5868H9.79427V40.2437C9.79495 40.4689 9.85795 40.6894 9.97629 40.8809C10.0946 41.0724 10.2637 41.2274 10.4647 41.3287L14.6702 43.4375V76.0577L10.4647 78.1666C10.2637 78.2679 10.0946 78.4229 9.97629 78.6143C9.85795 78.8058 9.79495 79.0264 9.79427 79.2515V82.9085H8.57528C8.31972 82.9078 8.07043 82.9875 7.86262 83.1362C7.65481 83.285 7.49901 83.4952 7.41724 83.7374L5.25962 90.2224H3.69931C3.44376 90.2217 3.19446 90.3014 2.98665 90.4502C2.77885 90.5989 2.62305 90.8092 2.54127 91.0513L0.103288 98.3653C0.0428397 98.5486 0.0267893 98.7436 0.0564589 98.9344C0.0861285 99.1251 0.160669 99.3061 0.273946 99.4624C0.386113 99.6199 0.534155 99.7485 0.705843 99.8375C0.877531 99.9265 1.06794 99.9734 1.26133 99.9743H98.7806C98.974 99.9734 99.1644 99.9265 99.3361 99.8375C99.5078 99.7485 99.6559 99.6199 99.768 99.4624C99.8813 99.3061 99.9558 99.1251 99.9855 98.9344C100.015 98.7436 99.9991 98.5486 99.9387 98.3653L97.5007 91.0513C97.4189 90.8092 97.2631 90.5989 97.0553 90.4502C96.8475 90.3014 96.5982 90.2217 96.3427 90.2224H94.7823L92.6857 83.7374C92.6009 83.4851 92.4358 83.2674 92.2157 83.1178C91.9956 82.9681 91.7325 82.8946 91.4667 82.9085H90.2477V79.2515C90.247 79.0264 90.184 78.8058 90.0657 78.6143C89.9473 78.4229 89.7783 78.2679 89.5772 78.1666L85.3717 76.0577V43.4375L89.5772 41.3287C89.7783 41.2274 89.9473 41.0724 90.0657 40.8809C90.184 40.6894 90.247 40.4689 90.2477 40.2437V36.5868H93.9047C94.228 36.5868 94.538 36.4584 94.7666 36.2297C94.9952 36.0011 95.1237 35.6911 95.1237 35.3678V29.2728H98.7806C99.0515 29.2715 99.3141 29.18 99.5272 29.0128C99.7402 28.8456 99.8915 28.6122 99.9572 28.3495C100.023 28.0868 99.9992 27.8096 99.8899 27.5619C99.7806 27.3141 99.5919 27.1098 99.3536 26.9811L49.3749 0.163314C49.1896 0.056325 48.9794 0 48.7654 0C48.5514 0 48.3412 0.056325 48.1559 0.163314L0.615264 26.9811C0.380697 27.1149 0.197167 27.3227 0.0934747 27.572C-0.0102178 27.8213 -0.0282045 28.098 0.0423378 28.3586ZM12.2323 80.0073L16.4378 77.8984C16.6388 77.7971 16.8079 77.6421 16.9262 77.4506C17.0445 77.2591 17.1075 77.0386 17.1082 76.8135V42.6817C17.1075 42.4566 17.0445 42.2361 16.9262 42.0446C16.8079 41.8531 16.6388 41.6981 16.4378 41.5968L12.2323 39.488V36.5868H29.2981V39.488L25.0926 41.5968C24.8916 41.6981 24.7225 41.8531 24.6042 42.0446C24.4858 42.2361 24.4228 42.4566 24.4222 42.6817V76.8135C24.4228 77.0386 24.4858 77.2591 24.6042 77.4506C24.7225 77.6421 24.8916 77.7971 25.0926 77.8984L29.2981 80.0073V82.9085H12.2323V80.0073ZM39.0501 36.5868V40.2437C39.0507 40.4689 39.1137 40.6894 39.2321 40.8809C39.3504 41.0724 39.5195 41.2274 39.7205 41.3287L43.926 43.4375V76.0577L39.7205 78.1666C39.5195 78.2679 39.3504 78.4229 39.2321 78.6143C39.1137 78.8058 39.0507 79.0264 39.0501 79.2515V82.9085H31.7361V79.2515C31.7354 79.0264 31.6724 78.8058 31.5541 78.6143C31.4358 78.4229 31.2667 78.2679 31.0657 78.1666L26.8601 76.0577V43.4375L31.0657 41.3287C31.2667 41.2274 31.4358 41.0724 31.5541 40.8809C31.6724 40.6894 31.7354 40.4689 31.7361 40.2437V36.5868H39.0501ZM68.3059 36.5868V40.2437C68.3065 40.4689 68.3695 40.6894 68.4879 40.8809C68.6062 41.0724 68.7753 41.2274 68.9763 41.3287L73.1818 43.4375V76.0577L68.9763 78.1666C68.7753 78.2679 68.6062 78.4229 68.4879 78.6143C68.3695 78.8058 68.3065 79.0264 68.3059 79.2515V82.9085H60.9919V79.2515C60.9912 79.0264 60.9282 78.8058 60.8099 78.6143C60.6915 78.4229 60.5225 78.2679 60.3215 78.1666L56.1159 76.0577V43.4375L60.3215 41.3287C60.5225 41.2274 60.6915 41.0724 60.8099 40.8809C60.9282 40.6894 60.9912 40.4689 60.9919 40.2437V36.5868H68.3059ZM58.5539 39.488L54.3484 41.5968C54.1474 41.6981 53.9783 41.8531 53.86 42.0446C53.7416 42.2361 53.6786 42.4566 53.678 42.6817V76.8135C53.6786 77.0386 53.7416 77.2591 53.86 77.4506C53.9783 77.6421 54.1474 77.7971 54.3484 77.8984L58.5539 80.0073V82.9085H41.488V80.0073L45.6936 77.8984C45.8946 77.7971 46.0637 77.6421 46.182 77.4506C46.3003 77.2591 46.3633 77.0386 46.364 76.8135V42.6817C46.3633 42.4566 46.3003 42.2361 46.182 42.0446C46.0637 41.8531 45.8946 41.6981 45.6936 41.5968L41.488 39.488V36.5868H58.5539V39.488ZM97.0862 97.5363H2.95573L4.57699 92.6604H95.465L97.0862 97.5363ZM92.2103 90.2224H7.83169L9.45295 85.3464H90.589L92.2103 90.2224ZM87.8097 39.488L83.6042 41.5968C83.4032 41.6981 83.2341 41.8531 83.1158 42.0446C82.9974 42.2361 82.9344 42.4566 82.9337 42.6817V76.8135C82.9344 77.0386 82.9974 77.2591 83.1158 77.4506C83.2341 77.6421 83.4032 77.7971 83.6042 77.8984L87.8097 80.0073V82.9085H70.7438V80.0073L74.9494 77.8984C75.1504 77.7971 75.3194 77.6421 75.4378 77.4506C75.5561 77.2591 75.6191 77.0386 75.6198 76.8135V42.6817C75.6191 42.4566 75.5561 42.2361 75.4378 42.0446C75.3194 41.8531 75.1504 41.6981 74.9494 41.5968L70.7438 39.488V36.5868H87.8097V39.488ZM92.6857 34.1488H7.35629V29.2728H92.6857V34.1488ZM48.802 2.67444L93.9047 26.8348H5.90569L48.802 2.67444Z" fill="#D9C3AE"/>
<path d="M36.6121 24.397H64.6489C64.9722 24.397 65.2822 24.2685 65.5108 24.0399C65.7394 23.8113 65.8679 23.5013 65.8679 23.178C65.8679 22.8547 65.7394 22.5446 65.5108 22.316C65.2822 22.0874 64.9722 21.959 64.6489 21.959H36.6121C36.2888 21.959 35.9787 22.0874 35.7501 22.316C35.5215 22.5446 35.3931 22.8547 35.3931 23.178C35.3931 23.5013 35.5215 23.8113 35.7501 24.0399C35.9787 24.2685 36.2888 24.397 36.6121 24.397Z" fill="#D9C3AE"/>
</svg>
